<?xml version="1.0" encoding="utf-8"?>
<!-- Svg Vector Icons : http://www.onlinewebfonts.com/icon -->
<!DOCTYPE svg PUBLIC "-//W3C//DTD SVG 1.1//EN" "http://www.w3.org/Graphics/SVG/1.1/DTD/svg11.dtd">
<svg version="1.1" xmlns="http://www.w3.org/2000/svg" xmlns:xlink="http://www.w3.org/1999/xlink" x="0px" y="0px" viewBox="0 0 256 256" enable-background="new 0 0 256 256" xml:space="preserve">
<metadata> Svg Vector Icons : http://www.onlinewebfonts.com/icon </metadata>
<g><g><g><path  d="M118.2,10.4c-17.3,2.4-32.2,9.6-44.4,21.3C61.8,43,54.4,56.6,50.8,72.8c-1.7,8-1.7,23.3,0,31.4c3.8,17.5,10.4,28.9,26.1,45c15.6,16,15.7,16.2,16,32.6l0.2,11.6h34.9H163v-9.8c0-17.2,0.7-18.6,17.2-35.5c14.5-14.9,21.3-26.8,25-43.9c1.7-8,1.7-23.3,0-31.4c-3.3-15.1-10-27.8-20.3-38.5c-11.4-11.9-25-19.5-41-22.9C137.9,10.1,123.8,9.6,118.2,10.4z M142.8,20.1c20.8,4.8,38.5,18.6,48.1,37.7c10.3,20.6,9.2,46.5-2.8,67c-3.8,6.5-6.9,10.2-16.5,20.1c-4.8,5-9.7,10.3-10.8,11.8c-4.6,6.3-6.4,12.7-6.4,22.7v6.5H128h-26.2v-6.3c0-9.8-1.9-16.8-6.1-22.9c-0.7-1-5.4-6.1-10.6-11.3c-15.1-15.5-21-24.7-24.7-38.7c-5.2-20-1.8-40.3,9.8-57.5c3.5-5.3,13.2-14.9,18.4-18.4c9.5-6.3,20.3-10.4,31.7-11.9C124.7,18.3,138.2,19.1,142.8,20.1z"/><path  d="M119.3,88.5v35h8.7h8.7v-35v-35H128h-8.7V88.5z"/><path  d="M119.3,149.8v8.7h8.7h8.7v-8.7V141H128h-8.7V149.8z"/><path  d="M93,206.6v4.4h35h35v-4.4v-4.4h-35H93V206.6z"/><path  d="M93,224.1v4.4h35h35v-4.4v-4.4h-35H93V224.1z"/><path d="M110.5,241.6v4.4H128h17.5v-4.4v-4.4H128h-17.5V241.6z"/></g></g></g>
</svg>