<?xml version="1.0" encoding="utf-8"?>
<!-- Svg Vector Icons : http://www.onlinewebfonts.com/icon -->
<!DOCTYPE svg PUBLIC "-//W3C//DTD SVG 1.1//EN" "http://www.w3.org/Graphics/SVG/1.1/DTD/svg11.dtd">
<svg version="1.1" xmlns="http://www.w3.org/2000/svg" xmlns:xlink="http://www.w3.org/1999/xlink" x="0px" y="0px" viewBox="0 0 256 256" enable-background="new 0 0 256 256" xml:space="preserve">
<metadata> Svg Vector Icons : http://www.onlinewebfonts.com/icon </metadata>
<g><g><g><path  d="M121.2,10.7c-1,0.6-6.3,7.5-18.2,23.7c-9.2,12.6-16.9,23.5-17.3,24.3c-0.5,1.2-0.6,1.8,0,3.2c0.5,1.6,2.7,3.3,23.2,18.2c12.5,9.1,23.4,16.9,24.3,17.5c2.5,1.4,3.8,1.2,5.9-0.8c1.7-1.6,33-44.3,34.2-46.6c1-1.8,0.6-3.7-1-5.4c-1.8-1.8-45.8-33.9-47.4-34.5C123.3,9.7,122.9,9.8,121.2,10.7z M143.7,35.3c10.2,7.4,18.5,13.7,18.5,13.9c0,0.4-25.9,36.1-27,37.3c-0.5,0.6-3.5-1.4-19.3-12.9c-10.3-7.4-18.8-13.7-19-13.9c-0.6-0.5,27-38.3,27.7-38.1C125,21.7,133.5,27.9,143.7,35.3z"/><path  d="M183.1,10.3c-0.6,0.2-1.4,1-2,1.7l-1,1.2l0.1,30.2l0.1,30.2l1.1,1.1l1.1,1.1l30.2,0.1l30.2,0.1l1.5-1.3l1.5-1.3V42.9V12.6l-1.3-1.2l-1.2-1.3L213.8,10C197.5,10,183.7,10.1,183.1,10.3z M236.8,42.9v23.6l-23.6,0.1l-23.7,0.1V43.2c0-12.9,0.1-23.6,0.3-23.8c0.1-0.2,10.8-0.3,23.6-0.2l23.4,0.1V42.9z"/><path  d="M12.8,67.1c-0.5,0.2-1.3,0.9-1.8,1.4c-0.9,1-0.9,1.7-0.9,88v87l1.3,1.2l1.2,1.3h87.1h87.1l1.2-1.3l1.3-1.2l0.1-29c0.1-15.9,0-29.6-0.1-30.3c-0.1-0.8-0.7-1.9-1.2-2.5l-1-1.2l-27.1-0.2l-27.1-0.2l-0.2-26.8c-0.2-25.2-0.3-26.9-1.1-28.1c-0.5-0.7-0.9-1.3-0.9-1.3c0,0-12.3-0.2-27.3-0.4L76,123.3l-0.2-26.8c-0.2-28.8-0.2-28.2-2.6-29.3C71.8,66.6,14.2,66.5,12.8,67.1z M66.5,99.6l-0.1,23.7H42.8H19.2l-0.1-23.1c0-12.7,0-23.4,0.1-23.7c0.1-0.4,5.4-0.6,23.8-0.6h23.6L66.5,99.6z M66.5,156.4l0.1,23.5H42.8H19v-23.2c0-12.8,0.1-23.4,0.3-23.6c0.1-0.2,10.8-0.3,23.6-0.2l23.4,0.1L66.5,156.4z M123.4,156.3v23.6H99.8H76.3v-23.6v-23.6h23.6h23.6V156.3z M66.5,213.2l-0.1,23.7H42.8H19.2l-0.1-23.1c0-12.7,0-23.4,0.1-23.7c0.1-0.4,5.4-0.6,23.8-0.6h23.6L66.5,213.2z M123.2,213.3v23.6L99.7,237l-23.5,0.1v-23.8v-23.8l23.5,0.1l23.4,0.1V213.3z M180.1,213.2l-0.1,23.7h-23.6h-23.6l-0.1-23.1c0-12.7,0-23.4,0.1-23.7c0.1-0.4,5.4-0.6,23.8-0.6h23.6L180.1,213.2z"/><path  d="M188,92.1c-29,9.8-29.6,10-29.6,13c0,0.9,4.1,13.8,9.1,28.8c10,29.9,9.9,29.8,13.4,29.8c1.8,0,55.1-17.6,56.5-18.6c1.1-0.8,1.8-2.4,1.8-3.9c0-0.7-4.1-13.5-9.1-28.5c-10-30-9.9-29.8-13.4-29.7C215.8,82.9,202.9,87,188,92.1z M221.3,115.7c4.2,12.4,7.3,22.4,7.1,22.5c-0.6,0.6-44.1,15-44.3,14.7c-0.3-0.3-15-44.3-14.8-44.5c0.1-0.1,43.8-14.9,44.2-14.9C213.7,93.5,217.1,103.4,221.3,115.7z"/></g></g></g>
</svg>